<?xml version="1.0" encoding="UTF-8"?><svg id="uuid-716554bc-8948-44f8-ad7f-70eb215e9c6f" xmlns="http://www.w3.org/2000/svg" viewBox="0 0 322.6 41"><g><path d="M87.92,5.74c7,0,11.02,3.44,11.02,9.54,0,6.41-4.03,10.13-11.02,10.13h-4.96v7.7h-6.96V5.74h11.92Zm-4.96,14.19h4.61c3.05,0,4.81-1.52,4.81-4.42s-1.76-4.3-4.81-4.3h-4.61v8.72Z" style="fill:#3a4368;"/><path d="M109.3,15.59c1.45-2.46,3.83-3.83,6.84-3.87v6.1c-3.91-.35-6.49,1.49-6.84,4.46v10.83h-6.76V12.03h6.76v3.56Z" style="fill:#3a4368;"/><path d="M140.5,22.55c0,6.49-4.61,10.79-11.49,10.79s-11.53-4.3-11.53-10.79,4.61-10.75,11.53-10.75,11.49,4.26,11.49,10.75Zm-16.22,.08c0,3.28,1.92,5.47,4.73,5.47s4.69-2.19,4.69-5.47-1.92-5.47-4.69-5.47-4.73,2.23-4.73,5.47Z" style="fill:#3a4368;"/><path d="M155.9,12.03h7.39l-6.68,10.24,7.15,10.83h-7.78l-3.83-6.61-4.3,6.61h-7.43l7.19-10.79-6.72-10.28h7.74l3.52,6.06,3.75-6.06Z" style="fill:#3a4368;"/><path d="M177.68,35.29c-1.56,3.83-4.22,5.71-8.13,5.71-2.35,0-4.26-.7-6.14-2.15l2.81-4.61c.98,.78,1.8,1.13,2.78,1.13,1.21,0,2.07-.55,2.62-1.68l.51-1.06-8.76-20.6h6.96l5.16,14,4.57-14h6.72l-9.11,23.26Z" style="fill:#3a4368;"/><path d="M210.56,8.47l-2.62,5.43c-2.89-1.68-6.53-2.85-8.76-2.85-1.8,0-3.01,.66-3.01,1.99,0,4.73,14.46,2.03,14.46,11.92,0,5.47-4.85,8.37-10.95,8.37-4.57,0-9.26-1.72-12.51-4.38l2.7-5.36c2.81,2.46,7.04,4.1,9.89,4.1,2.19,0,3.56-.82,3.56-2.38,0-4.85-14.46-1.95-14.46-11.65,0-5.04,4.34-8.25,10.91-8.25,3.95,0,7.97,1.21,10.79,3.05Z" style="fill:#3a4368;"/><path d="M232.96,16.53l-4.85,2.93c-.98-1.37-2.42-2.19-4.26-2.19-2.62,0-4.42,2.15-4.42,5.32s1.8,5.36,4.42,5.36c1.92,0,3.4-.78,4.3-2.38l4.93,2.89c-1.72,3.09-5.12,4.89-9.58,4.89-6.49,0-10.87-4.3-10.87-10.71s4.42-10.83,10.95-10.83c4.18,0,7.54,1.72,9.38,4.73Z" style="fill:#3a4368;"/><path d="M243.12,15.59c1.45-2.46,3.83-3.83,6.84-3.87v6.1c-3.91-.35-6.49,1.49-6.84,4.46v10.83h-6.76V12.03h6.76v3.56Z" style="fill:#3a4368;"/><path d="M271.11,19.34v13.76h-6.61v-2.42c-1.37,1.8-3.6,2.74-6.45,2.74-4.5,0-7.23-2.74-7.23-6.61s2.85-6.33,8.09-6.37h5.55v-.31c0-2.07-1.37-3.32-4.1-3.32-1.76,0-4.07,.63-6.29,1.76l-1.92-4.46c3.28-1.52,6.26-2.38,9.77-2.38,5.79,0,9.15,2.85,9.19,7.62Zm-6.65,6.61v-1.88h-4.26c-2.03,0-3.05,.7-3.05,2.27s1.09,2.5,2.97,2.5c2.11,0,3.91-1.17,4.34-2.89Z" style="fill:#3a4368;"/><path d="M299.07,22.67c0,6.41-3.83,10.67-9.73,10.67-2.74,0-4.96-1.09-6.45-3.05v10.4h-6.76V12.03h6.76v2.78c1.49-1.92,3.64-3.01,6.29-3.01,5.94,0,9.89,4.34,9.89,10.87Zm-6.8-.2c0-3.21-1.92-5.47-4.73-5.47s-4.65,2.27-4.65,5.47,1.92,5.51,4.65,5.51,4.73-2.27,4.73-5.51Z" style="fill:#3a4368;"/><path d="M322.56,24.39h-14.82c.66,2.5,2.46,3.91,4.96,3.91,1.84,0,3.64-.74,5.04-2.15l3.56,3.48c-2.15,2.35-5.32,3.71-9.19,3.71-6.88,0-11.18-4.3-11.18-10.71s4.46-10.83,10.99-10.83c7.43,0,11.1,4.89,10.63,12.59Zm-6.49-3.64c0-2.58-1.64-4.26-4.07-4.26s-3.95,1.72-4.38,4.26h8.44Z" style="fill:#3a4368;"/></g><g><rect x=".22" width="64.11" height="11.85" rx="2.54" ry="2.54" style="fill:#4888c7;"/><rect x="7.22" y="3.13" width="31.12" height="5.31" rx="1.07" ry="1.07" style="fill:#fff;"/><circle cx="47.83" cy="5.79" r="2.66" style="fill:#fff;"/><circle cx="54.66" cy="5.79" r="2.66" style="fill:#fff;"/><rect x=".11" y="13.62" width="64.11" height="11.85" rx="2.54" ry="2.54" style="fill:#4888c7;"/><rect x="8.41" y="16.86" width="31.12" height="5.31" rx="1.07" ry="1.07" style="fill:#fff;"/><circle cx="50.32" cy="19.41" r="2.66" style="fill:#fff;"/><circle cx="57.15" cy="19.41" r="2.66" style="fill:#fff;"/><rect y="27.24" width="64.11" height="11.85" rx="2.54" ry="2.54" style="fill:#4888c7;"/><rect x="5.06" y="30.38" width="31.12" height="5.31" rx="1.07" ry="1.07" style="fill:#fff;"/><circle cx="43.94" cy="33.03" r="2.66" style="fill:#fff;"/><circle cx="54.45" cy="33.03" r="2.66" style="fill:#fff;"/></g></svg>